<svg width="333" height="343" viewBox="0 0 333 343" fill="none" xmlns="http://www.w3.org/2000/svg">
<mask id="mask0_17_1145" style="mask-type:alpha" maskUnits="userSpaceOnUse" x="0" y="0" width="333" height="343">
<rect x="0.950317" y="0.751671" width="331.667" height="342.12" rx="63.9871" fill="#F7F7F7"/>
</mask>
<g mask="url(#mask0_17_1145)">
<g filter="url(#filter0_if_17_1145)">
<path fill-rule="evenodd" clip-rule="evenodd" d="M186.207 277.862C183.367 265.541 181.653 250.216 185.217 237.981L167.541 234.014L167.55 233.635L166.701 233.825L165.852 233.635L165.861 234.014L148.185 237.981C151.622 249.781 150.15 264.455 147.494 276.536C128.124 281.571 105.915 289.615 97.1528 293.041L102.707 342.787H232.869L239.147 293.041L187.952 276.378C187.499 276.818 186.913 277.324 186.207 277.862ZM166.754 284.121C166.738 282.623 166.72 281.1 166.701 279.559C166.682 281.098 166.664 282.619 166.648 284.116C166.683 284.117 166.719 284.119 166.754 284.121Z" fill="url(#paint0_radial_17_1145)"/>
</g>
<g filter="url(#filter1_if_17_1145)">
<g filter="url(#filter2_if_17_1145)">
<path d="M241.562 198.378C241.562 203.979 235.255 210.452 230.454 210.452C225.652 210.452 224.175 203.979 224.175 198.378C224.175 192.776 228.067 188.235 232.869 188.235C237.67 188.235 241.562 192.776 241.562 198.378Z" fill="url(#paint1_radial_17_1145)"/>
</g>
<g filter="url(#filter3_f_17_1145)">
<ellipse cx="230.212" cy="199.223" rx="4.58826" ry="5.35297" fill="url(#paint2_radial_17_1145)"/>
</g>
</g>
<g filter="url(#filter4_if_17_1145)">
<g filter="url(#filter5_if_17_1145)">
<path d="M91.84 198.378C91.84 203.979 98.1471 210.452 102.948 210.452C107.75 210.452 109.227 203.979 109.227 198.378C109.227 192.776 105.335 188.235 100.534 188.235C95.7323 188.235 91.84 192.776 91.84 198.378Z" fill="url(#paint3_radial_17_1145)"/>
</g>
<g filter="url(#filter6_f_17_1145)">
<ellipse cx="4.58826" cy="5.35297" rx="4.58826" ry="5.35297" transform="matrix(-1 0 0 1 107.778 193.87)" fill="url(#paint4_radial_17_1145)"/>
</g>
</g>
<g filter="url(#filter7_f_17_1145)">
<path d="M147.382 245.951C148.967 239.151 152.577 240.548 151.916 235.569C162.262 234.109 182.69 232.066 181.634 235.569C180.313 239.947 180.973 242.539 181.634 250.78C182.294 259.022 181.876 268.65 178.534 268.65C160.664 268.65 145.401 254.449 147.382 245.951Z" fill="#422B00" fill-opacity="0.64"/>
</g>
<g filter="url(#filter8_if_17_1145)">
<path d="M102.948 191.821C102.948 156.498 131.583 127.863 166.906 127.863C202.228 127.863 230.863 156.498 230.863 191.821V192.855C230.863 214.492 218.919 234.362 199.811 244.512L184.484 252.654C172.786 258.868 158.742 258.76 147.141 252.368L133.397 244.795C114.614 234.445 102.948 214.697 102.948 193.252V191.821Z" fill="url(#paint5_radial_17_1145)"/>
</g>
<g filter="url(#filter9_if_17_1145)">
<ellipse cx="144.243" cy="187.028" rx="6.52015" ry="7.96908" fill="black"/>
</g>
<g filter="url(#filter10_if_17_1145)">
<ellipse cx="188.193" cy="187.028" rx="6.52015" ry="7.96908" fill="black"/>
</g>
<g filter="url(#filter11_f_17_1145)">
<path d="M181.673 175.447C186.262 173.273 193.989 173.515 196.646 175.447C199.302 177.379 188.918 167.478 181.673 175.447Z" fill="#0A0909"/>
</g>
<g filter="url(#filter12_f_17_1145)">
<path d="M150.705 175.447C146.116 173.273 138.389 173.515 135.733 175.447C133.076 177.379 143.46 167.478 150.705 175.447Z" fill="#0A0909"/>
</g>
<g filter="url(#filter13_df_17_1145)">
<path d="M172.014 214.316C172.014 216.85 169.635 219.387 166.701 219.387C163.767 219.387 161.388 216.85 161.388 214.316C161.388 211.782 163.767 188.235 166.701 188.235C169.635 188.235 172.014 211.782 172.014 214.316Z" fill="url(#paint6_linear_17_1145)"/>
</g>
<g filter="url(#filter14_f_17_1145)">
<path d="M214.516 200.458C214.516 203.841 204.921 213.724 200.992 213.724C197.064 213.724 188.435 208.522 188.435 205.139C188.435 201.756 200.313 198.835 204.241 198.835C208.17 198.835 214.516 197.076 214.516 200.458Z" fill="#B73B3B" fill-opacity="0.39"/>
</g>
<g filter="url(#filter15_f_17_1145)">
<path d="M118.887 200.458C118.887 203.841 128.482 213.724 132.41 213.724C136.338 213.724 144.967 208.522 144.967 205.139C144.967 201.756 133.089 198.835 129.161 198.835C125.233 198.835 118.887 197.076 118.887 200.458Z" fill="#B73B3B" fill-opacity="0.39"/>
</g>
<g filter="url(#filter16_if_17_1145)">
<path d="M173.221 230.978C168.633 232.669 168.633 233.152 160.905 232.669C161.871 233.876 163.996 235.518 166.701 235.325C169.406 235.132 170.806 234.118 173.221 230.978Z" fill="#AD0000"/>
</g>
<g filter="url(#filter17_if_17_1145)">
<path d="M165.011 305.115C142.521 305.115 126.502 289.223 120.229 279.819C119.569 278.828 118.312 278.393 117.205 278.834L95.8722 287.326C94.9063 287.71 94.2949 288.669 94.3544 289.707L97.2638 340.51C97.337 341.788 98.3946 342.787 99.6747 342.787H235.669C236.945 342.787 238.001 341.794 238.079 340.521L241.207 289.803C241.274 288.719 240.61 287.725 239.584 287.371L214.365 278.682C213.318 278.321 212.168 278.716 211.521 279.615C204.76 288.991 187.663 305.115 165.011 305.115Z" fill="#FFB21E"/>
</g>
<g filter="url(#filter18_f_17_1145)">
<path fill-rule="evenodd" clip-rule="evenodd" d="M83.6294 135.349C83.6294 145.829 90.8072 154.632 100.515 157.111C99.4047 159.325 98.6125 161.443 98.1961 163.394C94.3323 181.506 102.301 193.097 104.233 195.512C105.313 196.862 106.377 203.947 107.112 210.347C107.34 212.325 110.043 212.76 110.816 210.925C113.036 205.653 115.526 199.348 116.549 195.512C118.095 189.716 120.413 171.685 121.379 163.394L119.206 187.06L134.419 156.633L123.794 181.264L150.357 156.633L129.831 178.367C146.588 171.633 182.021 155.663 195.938 143.315C199.056 153.276 211.192 173.875 217.654 184.13L214.756 172.538L222.966 193.548V179.3L225.864 200.551C226.267 204.495 227.651 212.384 229.97 212.384C231.535 212.384 231.762 207.378 231.982 202.509V202.509C232.169 198.367 232.351 194.325 233.35 193.548C235.524 191.857 235.945 178.999 235.282 169.882C234.969 165.575 233.653 161.313 231.675 157.284C241.75 155.069 249.29 146.09 249.29 135.349C249.29 122.946 239.235 112.891 226.831 112.891C215.479 112.891 206.094 121.314 204.585 132.252C202.211 131.581 200.116 131.492 198.505 132.099C195.981 128.63 189.271 127.4 180.895 125.864C174.672 124.723 167.53 123.414 160.5 120.893C150.892 117.446 138.663 121.543 127.566 128.767C124.753 119.576 116.201 112.891 106.088 112.891C93.6843 112.891 83.6294 122.946 83.6294 135.349Z" fill="#333333"/>
</g>
<path fill-rule="evenodd" clip-rule="evenodd" d="M113.55 195.227L122.696 202.75C122.869 202.892 123.086 202.97 123.31 202.97H166.673C167.204 202.97 167.636 203.4 167.639 203.931C167.641 203.4 168.073 202.97 168.605 202.97H211.967C212.191 202.97 212.408 202.892 212.581 202.75L221.727 195.227C222.597 194.511 223.78 195.611 223.129 196.531L220.46 200.305C220.345 200.468 220.283 200.663 220.283 200.862V221.262C220.283 222.069 221.214 222.52 221.847 222.02L228.888 216.461C229.761 215.772 230.855 216.816 230.194 217.711C226.73 222.404 221.479 229.335 214.97 237.503C205.44 249.463 180.981 258.018 168.828 261.115C168.223 261.269 167.642 260.811 167.639 260.188C167.636 260.811 167.054 261.269 166.45 261.115C154.297 258.018 129.838 249.463 120.307 237.503C113.798 229.335 108.547 222.404 105.083 217.711C104.422 216.816 105.516 215.772 106.389 216.461L113.43 222.02C114.064 222.52 114.995 222.069 114.995 221.262V200.862C114.995 200.663 114.933 200.468 114.817 200.305L112.148 196.531C111.497 195.611 112.68 194.511 113.55 195.227Z" fill="#484848"/>
</g>
<defs>
<filter id="filter0_if_17_1145" x="94.4061" y="230.888" width="147.488" height="114.645" filterUnits="userSpaceOnUse" color-interpolation-filters="sRGB">
<feFlood flood-opacity="0" result="BackgroundImageFix"/>
<feBlend mode="normal" in="SourceGraphic" in2="BackgroundImageFix" result="shape"/>
<feColorMatrix in="SourceAlpha" type="matrix" values="0 0 0 0 0 0 0 0 0 0 0 0 0 0 0 0 0 0 127 0" result="hardAlpha"/>
<feOffset/>
<feGaussianBlur stdDeviation="13.537"/>
<feComposite in2="hardAlpha" operator="arithmetic" k2="-1" k3="1"/>
<feColorMatrix type="matrix" values="0 0 0 0 0.558333 0 0 0 0 0.436835 0 0 0 0 0.200069 0 0 0 1 0"/>
<feBlend mode="normal" in2="shape" result="effect1_innerShadow_17_1145"/>
<feGaussianBlur stdDeviation="1.37332" result="effect2_foregroundBlur_17_1145"/>
</filter>
<filter id="filter1_if_17_1145" x="221.428" y="185.488" width="22.8803" height="27.7101" filterUnits="userSpaceOnUse" color-interpolation-filters="sRGB">
<feFlood flood-opacity="0" result="BackgroundImageFix"/>
<feBlend mode="normal" in="SourceGraphic" in2="BackgroundImageFix" result="shape"/>
<feColorMatrix in="SourceAlpha" type="matrix" values="0 0 0 0 0 0 0 0 0 0 0 0 0 0 0 0 0 0 127 0" result="hardAlpha"/>
<feOffset/>
<feGaussianBlur stdDeviation="13.537"/>
<feComposite in2="hardAlpha" operator="arithmetic" k2="-1" k3="1"/>
<feColorMatrix type="matrix" values="0 0 0 0 0.558333 0 0 0 0 0.436835 0 0 0 0 0.200069 0 0 0 1 0"/>
<feBlend mode="normal" in2="shape" result="effect1_innerShadow_17_1145"/>
<feGaussianBlur stdDeviation="1.37332" result="effect2_foregroundBlur_17_1145"/>
</filter>
<filter id="filter2_if_17_1145" x="222.243" y="186.303" width="21.2509" height="26.0806" filterUnits="userSpaceOnUse" color-interpolation-filters="sRGB">
<feFlood flood-opacity="0" result="BackgroundImageFix"/>
<feBlend mode="normal" in="SourceGraphic" in2="BackgroundImageFix" result="shape"/>
<feColorMatrix in="SourceAlpha" type="matrix" values="0 0 0 0 0 0 0 0 0 0 0 0 0 0 0 0 0 0 127 0" result="hardAlpha"/>
<feOffset dx="-0.965949" dy="0.965949"/>
<feGaussianBlur stdDeviation="5.07123"/>
<feComposite in2="hardAlpha" operator="arithmetic" k2="-1" k3="1"/>
<feColorMatrix type="matrix" values="0 0 0 0 0.945833 0 0 0 0 0.798525 0 0 0 0 0.512326 0 0 0 1 0"/>
<feBlend mode="normal" in2="shape" result="effect1_innerShadow_17_1145"/>
<feGaussianBlur stdDeviation="0.965949" result="effect2_foregroundBlur_17_1145"/>
</filter>
<filter id="filter3_f_17_1145" x="219.676" y="187.922" width="21.072" height="22.6014" filterUnits="userSpaceOnUse" color-interpolation-filters="sRGB">
<feFlood flood-opacity="0" result="BackgroundImageFix"/>
<feBlend mode="normal" in="SourceGraphic" in2="BackgroundImageFix" result="shape"/>
<feGaussianBlur stdDeviation="2.97387" result="effect1_foregroundBlur_17_1145"/>
</filter>
<filter id="filter4_if_17_1145" x="89.0934" y="185.488" width="22.8803" height="27.7101" filterUnits="userSpaceOnUse" color-interpolation-filters="sRGB">
<feFlood flood-opacity="0" result="BackgroundImageFix"/>
<feBlend mode="normal" in="SourceGraphic" in2="BackgroundImageFix" result="shape"/>
<feColorMatrix in="SourceAlpha" type="matrix" values="0 0 0 0 0 0 0 0 0 0 0 0 0 0 0 0 0 0 127 0" result="hardAlpha"/>
<feOffset/>
<feGaussianBlur stdDeviation="13.537"/>
<feComposite in2="hardAlpha" operator="arithmetic" k2="-1" k3="1"/>
<feColorMatrix type="matrix" values="0 0 0 0 0.558333 0 0 0 0 0.436835 0 0 0 0 0.200069 0 0 0 1 0"/>
<feBlend mode="normal" in2="shape" result="effect1_innerShadow_17_1145"/>
<feGaussianBlur stdDeviation="1.37332" result="effect2_foregroundBlur_17_1145"/>
</filter>
<filter id="filter5_if_17_1145" x="89.9081" y="186.303" width="21.2509" height="26.0806" filterUnits="userSpaceOnUse" color-interpolation-filters="sRGB">
<feFlood flood-opacity="0" result="BackgroundImageFix"/>
<feBlend mode="normal" in="SourceGraphic" in2="BackgroundImageFix" result="shape"/>
<feColorMatrix in="SourceAlpha" type="matrix" values="0 0 0 0 0 0 0 0 0 0 0 0 0 0 0 0 0 0 127 0" result="hardAlpha"/>
<feOffset dx="-0.965949" dy="0.965949"/>
<feGaussianBlur stdDeviation="5.07123"/>
<feComposite in2="hardAlpha" operator="arithmetic" k2="-1" k3="1"/>
<feColorMatrix type="matrix" values="0 0 0 0 0.945833 0 0 0 0 0.798525 0 0 0 0 0.512326 0 0 0 1 0"/>
<feBlend mode="normal" in2="shape" result="effect1_innerShadow_17_1145"/>
<feGaussianBlur stdDeviation="0.965949" result="effect2_foregroundBlur_17_1145"/>
</filter>
<filter id="filter6_f_17_1145" x="92.6539" y="187.922" width="21.072" height="22.6014" filterUnits="userSpaceOnUse" color-interpolation-filters="sRGB">
<feFlood flood-opacity="0" result="BackgroundImageFix"/>
<feBlend mode="normal" in="SourceGraphic" in2="BackgroundImageFix" result="shape"/>
<feGaussianBlur stdDeviation="2.97387" result="effect1_foregroundBlur_17_1145"/>
</filter>
<filter id="filter7_f_17_1145" x="142.862" y="229.288" width="43.3831" height="43.7092" filterUnits="userSpaceOnUse" color-interpolation-filters="sRGB">
<feFlood flood-opacity="0" result="BackgroundImageFix"/>
<feBlend mode="normal" in="SourceGraphic" in2="BackgroundImageFix" result="shape"/>
<feGaussianBlur stdDeviation="2.17338" result="effect1_foregroundBlur_17_1145"/>
</filter>
<filter id="filter8_if_17_1145" x="100.202" y="125.117" width="133.408" height="134.869" filterUnits="userSpaceOnUse" color-interpolation-filters="sRGB">
<feFlood flood-opacity="0" result="BackgroundImageFix"/>
<feBlend mode="normal" in="SourceGraphic" in2="BackgroundImageFix" result="shape"/>
<feColorMatrix in="SourceAlpha" type="matrix" values="0 0 0 0 0 0 0 0 0 0 0 0 0 0 0 0 0 0 127 0" result="hardAlpha"/>
<feOffset/>
<feGaussianBlur stdDeviation="13.537"/>
<feComposite in2="hardAlpha" operator="arithmetic" k2="-1" k3="1"/>
<feColorMatrix type="matrix" values="0 0 0 0 0.558333 0 0 0 0 0.436835 0 0 0 0 0.200069 0 0 0 1 0"/>
<feBlend mode="normal" in2="shape" result="effect1_innerShadow_17_1145"/>
<feGaussianBlur stdDeviation="1.37332" result="effect2_foregroundBlur_17_1145"/>
</filter>
<filter id="filter9_if_17_1145" x="136.844" y="178.18" width="14.7981" height="17.696" filterUnits="userSpaceOnUse" color-interpolation-filters="sRGB">
<feFlood flood-opacity="0" result="BackgroundImageFix"/>
<feBlend mode="normal" in="SourceGraphic" in2="BackgroundImageFix" result="shape"/>
<feColorMatrix in="SourceAlpha" type="matrix" values="0 0 0 0 0 0 0 0 0 0 0 0 0 0 0 0 0 0 127 0" result="hardAlpha"/>
<feOffset/>
<feGaussianBlur stdDeviation="3.73544"/>
<feComposite in2="hardAlpha" operator="arithmetic" k2="-1" k3="1"/>
<feColorMatrix type="matrix" values="0 0 0 0 0.458333 0 0 0 0 0.458333 0 0 0 0 0.458333 0 0 0 0.73 0"/>
<feBlend mode="normal" in2="shape" result="effect1_innerShadow_17_1145"/>
<feGaussianBlur stdDeviation="0.439463" result="effect2_foregroundBlur_17_1145"/>
</filter>
<filter id="filter10_if_17_1145" x="180.794" y="178.18" width="14.7981" height="17.696" filterUnits="userSpaceOnUse" color-interpolation-filters="sRGB">
<feFlood flood-opacity="0" result="BackgroundImageFix"/>
<feBlend mode="normal" in="SourceGraphic" in2="BackgroundImageFix" result="shape"/>
<feColorMatrix in="SourceAlpha" type="matrix" values="0 0 0 0 0 0 0 0 0 0 0 0 0 0 0 0 0 0 127 0" result="hardAlpha"/>
<feOffset/>
<feGaussianBlur stdDeviation="3.73544"/>
<feComposite in2="hardAlpha" operator="arithmetic" k2="-1" k3="1"/>
<feColorMatrix type="matrix" values="0 0 0 0 0.458333 0 0 0 0 0.458333 0 0 0 0 0.458333 0 0 0 0.73 0"/>
<feBlend mode="normal" in2="shape" result="effect1_innerShadow_17_1145"/>
<feGaussianBlur stdDeviation="0.439463" result="effect2_foregroundBlur_17_1145"/>
</filter>
<filter id="filter11_f_17_1145" x="180.707" y="171.331" width="17.3289" height="5.33754" filterUnits="userSpaceOnUse" color-interpolation-filters="sRGB">
<feFlood flood-opacity="0" result="BackgroundImageFix"/>
<feBlend mode="normal" in="SourceGraphic" in2="BackgroundImageFix" result="shape"/>
<feGaussianBlur stdDeviation="0.482974" result="effect1_foregroundBlur_17_1145"/>
</filter>
<filter id="filter12_f_17_1145" x="134.342" y="171.331" width="17.3289" height="5.33754" filterUnits="userSpaceOnUse" color-interpolation-filters="sRGB">
<feFlood flood-opacity="0" result="BackgroundImageFix"/>
<feBlend mode="normal" in="SourceGraphic" in2="BackgroundImageFix" result="shape"/>
<feGaussianBlur stdDeviation="0.482974" result="effect1_foregroundBlur_17_1145"/>
</filter>
<filter id="filter13_df_17_1145" x="159.939" y="186.786" width="13.5233" height="34.0497" filterUnits="userSpaceOnUse" color-interpolation-filters="sRGB">
<feFlood flood-opacity="0" result="BackgroundImageFix"/>
<feColorMatrix in="SourceAlpha" type="matrix" values="0 0 0 0 0 0 0 0 0 0 0 0 0 0 0 0 0 0 127 0" result="hardAlpha"/>
<feOffset dy="0.482974"/>
<feGaussianBlur stdDeviation="0.482974"/>
<feComposite in2="hardAlpha" operator="out"/>
<feColorMatrix type="matrix" values="0 0 0 0 0 0 0 0 0 0 0 0 0 0 0 0 0 0 0.25 0"/>
<feBlend mode="normal" in2="BackgroundImageFix" result="effect1_dropShadow_17_1145"/>
<feBlend mode="normal" in="SourceGraphic" in2="effect1_dropShadow_17_1145" result="shape"/>
<feGaussianBlur stdDeviation="0.724461" result="effect2_foregroundBlur_17_1145"/>
</filter>
<filter id="filter14_f_17_1145" x="176.998" y="186.941" width="48.9538" height="38.2195" filterUnits="userSpaceOnUse" color-interpolation-filters="sRGB">
<feFlood flood-opacity="0" result="BackgroundImageFix"/>
<feBlend mode="normal" in="SourceGraphic" in2="BackgroundImageFix" result="shape"/>
<feGaussianBlur stdDeviation="5.71831" result="effect1_foregroundBlur_17_1145"/>
</filter>
<filter id="filter15_f_17_1145" x="107.45" y="186.941" width="48.9539" height="38.2195" filterUnits="userSpaceOnUse" color-interpolation-filters="sRGB">
<feFlood flood-opacity="0" result="BackgroundImageFix"/>
<feBlend mode="normal" in="SourceGraphic" in2="BackgroundImageFix" result="shape"/>
<feGaussianBlur stdDeviation="5.71831" result="effect1_foregroundBlur_17_1145"/>
</filter>
<filter id="filter16_if_17_1145" x="159.939" y="230.012" width="14.2477" height="6.29429" filterUnits="userSpaceOnUse" color-interpolation-filters="sRGB">
<feFlood flood-opacity="0" result="BackgroundImageFix"/>
<feBlend mode="normal" in="SourceGraphic" in2="BackgroundImageFix" result="shape"/>
<feColorMatrix in="SourceAlpha" type="matrix" values="0 0 0 0 0 0 0 0 0 0 0 0 0 0 0 0 0 0 127 0" result="hardAlpha"/>
<feOffset dy="0.965949"/>
<feGaussianBlur stdDeviation="1.44892"/>
<feComposite in2="hardAlpha" operator="arithmetic" k2="-1" k3="1"/>
<feColorMatrix type="matrix" values="0 0 0 0 0 0 0 0 0 0 0 0 0 0 0 0 0 0 0.25 0"/>
<feBlend mode="normal" in2="shape" result="effect1_innerShadow_17_1145"/>
<feGaussianBlur stdDeviation="0.482974" result="effect2_foregroundBlur_17_1145"/>
</filter>
<filter id="filter17_if_17_1145" x="93.3845" y="277.583" width="148.794" height="66.1696" filterUnits="userSpaceOnUse" color-interpolation-filters="sRGB">
<feFlood flood-opacity="0" result="BackgroundImageFix"/>
<feBlend mode="normal" in="SourceGraphic" in2="BackgroundImageFix" result="shape"/>
<feColorMatrix in="SourceAlpha" type="matrix" values="0 0 0 0 0 0 0 0 0 0 0 0 0 0 0 0 0 0 127 0" result="hardAlpha"/>
<feOffset/>
<feGaussianBlur stdDeviation="7.4861"/>
<feComposite in2="hardAlpha" operator="arithmetic" k2="-1" k3="1"/>
<feColorMatrix type="matrix" values="0 0 0 0 1 0 0 0 0 0.6855 0 0 0 0 0.075 0 0 0 1 0"/>
<feBlend mode="normal" in2="shape" result="effect1_innerShadow_17_1145"/>
<feGaussianBlur stdDeviation="0.482974" result="effect2_foregroundBlur_17_1145"/>
</filter>
<filter id="filter18_f_17_1145" x="82.6634" y="111.925" width="167.592" height="101.424" filterUnits="userSpaceOnUse" color-interpolation-filters="sRGB">
<feFlood flood-opacity="0" result="BackgroundImageFix"/>
<feBlend mode="normal" in="SourceGraphic" in2="BackgroundImageFix" result="shape"/>
<feGaussianBlur stdDeviation="0.482974" result="effect1_foregroundBlur_17_1145"/>
</filter>
<radialGradient id="paint0_radial_17_1145" cx="0" cy="0" r="1" gradientUnits="userSpaceOnUse" gradientTransform="translate(168.15 270.345) rotate(93.6191) scale(72.4528 87.2011)">
<stop stop-color="#AD760B"/>
<stop offset="1" stop-color="#9C6700"/>
</radialGradient>
<radialGradient id="paint1_radial_17_1145" cx="0" cy="0" r="1" gradientUnits="userSpaceOnUse" gradientTransform="translate(232.869 195.707) rotate(92.1791) scale(14.7283 10.6913)">
<stop stop-color="#AD760B"/>
<stop offset="1" stop-color="#9C6700"/>
</radialGradient>
<radialGradient id="paint2_radial_17_1145" cx="0" cy="0" r="1" gradientUnits="userSpaceOnUse" gradientTransform="translate(230.212 197.47) rotate(92.3864) scale(7.09834 5.64181)">
<stop stop-color="#AD760B"/>
<stop offset="1" stop-color="#9C6700"/>
</radialGradient>
<radialGradient id="paint3_radial_17_1145" cx="0" cy="0" r="1" gradientUnits="userSpaceOnUse" gradientTransform="translate(100.534 195.707) rotate(87.8209) scale(14.7283 10.6913)">
<stop stop-color="#AD760B"/>
<stop offset="1" stop-color="#9C6700"/>
</radialGradient>
<radialGradient id="paint4_radial_17_1145" cx="0" cy="0" r="1" gradientUnits="userSpaceOnUse" gradientTransform="translate(4.58826 3.60065) rotate(92.3864) scale(7.09834 5.64181)">
<stop stop-color="#AD760B"/>
<stop offset="1" stop-color="#9C6700"/>
</radialGradient>
<radialGradient id="paint5_radial_17_1145" cx="0" cy="0" r="1" gradientUnits="userSpaceOnUse" gradientTransform="translate(166.906 173.183) rotate(92.6425) scale(89.3606 78.6276)">
<stop stop-color="#AD760B"/>
<stop offset="1" stop-color="#9C6700"/>
</radialGradient>
<linearGradient id="paint6_linear_17_1145" x1="166.701" y1="194.755" x2="163.651" y2="219.008" gradientUnits="userSpaceOnUse">
<stop stop-color="#AB7409"/>
<stop offset="1" stop-color="#9C6700"/>
</linearGradient>
</defs>
</svg>
