<svg width="375" height="375" viewBox="0 0 375 375" fill="none" xmlns="http://www.w3.org/2000/svg">
<path d="M299.125 213.227C310.806 178.184 364.894 135.53 302.426 92.8692C239.959 50.2083 173.428 114.707 146.511 129.943C119.594 145.179 86.075 123.341 58.1423 144.671C30.2097 166.002 44.1262 218.183 58.1423 242.301C72.1584 266.42 38.2894 300.586 77.3317 322.878C116.374 345.169 143.787 314.571 175.353 311.248C206.919 307.926 236.911 355.721 280.08 322.145C323.249 288.569 287.444 248.27 299.125 213.227Z" fill="#323947" fill-opacity="0.1"/>
<path d="M311.584 224.026C339.517 174.763 295.801 127.667 244.299 121.852C192.796 116.037 143.922 42.9364 84.8072 96.9311C25.6924 150.926 101.999 235.553 151.262 258.915C200.525 282.277 262.322 299.19 311.584 224.026Z" fill="#323947" fill-opacity="0.05"/>
<path d="M90 139.323C90 137.774 90 137 90.2912 136.388C90.5477 135.849 90.9591 135.399 91.4727 135.095C92.056 134.75 92.8271 134.681 94.3693 134.542L250.842 120.446C252.656 120.283 253.563 120.201 254.264 120.504C254.879 120.77 255.387 121.235 255.708 121.824C256.072 122.494 256.072 123.405 256.072 125.227V185.974C256.072 187.573 256.072 188.372 255.767 188.995C255.499 189.544 255.069 189.998 254.536 190.296C253.93 190.635 253.132 190.679 251.536 190.767L95.0638 199.38C93.301 199.477 92.4196 199.526 91.7419 199.212C91.1463 198.937 90.6573 198.475 90.3498 197.895C90 197.235 90 196.353 90 194.587V139.323Z" fill="white" fill-opacity="0.7"/>
<path d="M90.25 139.323C90.25 138.544 90.2502 137.975 90.2856 137.524C90.3209 137.075 90.3898 136.763 90.517 136.495C90.7521 136.001 91.1292 135.589 91.6 135.31C91.8547 135.16 92.1597 135.063 92.6033 134.988C93.0498 134.912 93.6167 134.861 94.3918 134.791L250.864 120.695C251.776 120.613 252.444 120.553 252.972 120.55C253.497 120.547 253.86 120.602 254.164 120.734C254.728 120.978 255.194 121.404 255.488 121.943C255.647 122.235 255.733 122.591 255.778 123.115C255.822 123.641 255.822 124.312 255.822 125.227V185.974C255.822 186.777 255.822 187.365 255.785 187.83C255.748 188.293 255.676 188.613 255.543 188.886C255.297 189.389 254.903 189.805 254.414 190.078C254.15 190.226 253.833 190.316 253.374 190.378C252.911 190.441 252.324 190.473 251.522 190.517L95.0501 199.13C94.1644 199.179 93.5155 199.215 93.003 199.2C92.4932 199.186 92.1418 199.122 91.8467 198.986C91.3008 198.733 90.8525 198.309 90.5707 197.778C90.4183 197.491 90.3353 197.143 90.2929 196.635C90.2502 196.124 90.25 195.474 90.25 194.587V139.323Z" stroke="white" stroke-opacity="0.7" stroke-width="0.5"/>
<path d="M107.776 175.746C107.776 175.746 111.331 176.765 115.394 175.746C124.68 173.417 122.415 158.449 133.677 156.955C144.939 155.46 141.112 175.429 152.468 175.746C166.854 176.147 159.578 146.797 174.306 146.797C181.968 146.797 178.877 161.018 191.574 162.541C204.27 164.065 205.465 153.882 214.936 155.431C221.326 156.477 221.666 162.921 228.14 163.049C236.266 163.211 242.361 156.955 242.361 156.955" stroke="#E60026" stroke-width="2" stroke-linecap="round"/>
<path d="M101.173 152.384L229.663 140.195M114.886 158.986V184.379M133.677 149.336V182.348M153.483 156.954V181.332M172.782 145.781V177.777M193.605 153.907V177.777M213.412 177.777V151.876M232.711 176.253V148.321" stroke="#323947" stroke-opacity="0.1" stroke-width="1.5" stroke-linecap="round"/>
<path d="M101.5 159.5L103.9 159.258M101.5 167.5L103.9 167.258M101.5 176L103.9 175.758M101.5 184L103.9 183.758" stroke="#E50026" stroke-width="2" stroke-linecap="round"/>
<path d="M85.3857 214.027C85.3857 212.416 85.3857 211.611 85.6939 210.985C85.9651 210.433 86.3991 209.979 86.9371 209.682C87.5483 209.345 88.3527 209.307 89.9615 209.232L145.506 206.634C147.257 206.552 148.132 206.511 148.804 206.826C149.395 207.103 149.88 207.566 150.184 208.143C150.53 208.8 150.53 209.676 150.53 211.429V277.899C150.53 279.541 150.53 280.362 150.214 280.996C149.935 281.553 149.49 282.01 148.94 282.302C148.315 282.635 147.494 282.656 145.853 282.698L90.3081 284.115C88.5894 284.158 87.7301 284.18 87.0717 283.859C86.4928 283.577 86.02 283.117 85.7232 282.545C85.3857 281.895 85.3857 281.035 85.3857 279.316V214.027Z" fill="white" fill-opacity="0.7"/>
<path d="M85.6357 214.027C85.6357 213.217 85.6359 212.625 85.6735 212.156C85.7108 211.691 85.7838 211.368 85.9182 211.095C86.1668 210.59 86.5646 210.173 87.0578 209.901C87.3245 209.754 87.6434 209.666 88.1068 209.607C88.5731 209.547 89.1647 209.519 89.9731 209.482L145.518 206.884C146.397 206.842 147.042 206.812 147.55 206.831C148.056 206.849 148.405 206.915 148.698 207.053L148.804 206.827L148.698 207.053C149.24 207.307 149.684 207.73 149.963 208.26C150.114 208.546 150.196 208.891 150.238 209.396C150.28 209.903 150.28 210.548 150.28 211.429V277.899C150.28 278.724 150.28 279.328 150.242 279.806C150.203 280.28 150.128 280.608 149.99 280.884C149.735 281.395 149.327 281.813 148.822 282.082C148.55 282.227 148.224 282.31 147.751 282.361C147.275 282.411 146.671 282.427 145.846 282.448L90.3017 283.865C89.4382 283.887 88.8058 283.903 88.3065 283.874C87.8101 283.846 87.4681 283.775 87.1812 283.635C86.6505 283.376 86.2171 282.954 85.9451 282.43C85.7981 282.147 85.718 281.806 85.6771 281.311C85.6359 280.813 85.6357 280.18 85.6357 279.316V214.027Z" stroke="white" stroke-opacity="0.7" stroke-width="0.5"/>
<path d="M94.8972 220.388L137.543 218.255M137.543 228.783L94.8972 230.915M137.543 239.448L94.8972 241.58M137.543 249.33L94.8972 251.462M137.543 259.349L94.8972 261.482M137.543 269.877L94.8972 272.009" stroke="#323947" stroke-opacity="0.1" stroke-width="1.5" stroke-linecap="round"/>
<path d="M94.8972 220.153L106.07 219.646M94.8972 261.247L106.07 260.74M106.578 271.405L94.8972 271.913" stroke="#008099" stroke-width="2" stroke-linecap="round"/>
<path d="M159.507 210.07C159.507 208.455 159.507 207.648 159.816 207.02C160.089 206.468 160.524 206.013 161.064 205.717C161.677 205.381 162.484 205.345 164.097 205.275L224.075 202.648C225.821 202.571 226.694 202.533 227.364 202.849C227.954 203.127 228.436 203.589 228.74 204.166C229.085 204.822 229.085 205.696 229.085 207.443V280.154C229.085 281.798 229.085 282.62 228.768 283.254C228.488 283.812 228.042 284.269 227.491 284.561C226.865 284.894 226.043 284.913 224.399 284.952L164.422 286.385C162.705 286.426 161.847 286.446 161.19 286.125C160.612 285.842 160.14 285.382 159.844 284.811C159.507 284.161 159.507 283.303 159.507 281.586V210.07Z" fill="white" fill-opacity="0.6"/>
<path d="M159.757 210.07C159.757 209.259 159.757 208.665 159.795 208.195C159.832 207.728 159.906 207.405 160.041 207.131C160.29 206.625 160.689 206.208 161.184 205.936C161.452 205.789 161.772 205.702 162.236 205.644C162.704 205.586 163.297 205.56 164.108 205.524L224.086 202.898C224.963 202.859 225.606 202.831 226.113 202.851C226.618 202.871 226.966 202.938 227.258 203.075C227.798 203.33 228.24 203.754 228.519 204.282C228.669 204.568 228.751 204.912 228.793 205.416C228.835 205.922 228.835 206.565 228.835 207.443V280.154C228.835 280.98 228.835 281.585 228.796 282.063C228.758 282.538 228.682 282.866 228.544 283.142C228.288 283.653 227.879 284.072 227.374 284.34C227.101 284.485 226.775 284.568 226.301 284.618C225.824 284.668 225.219 284.683 224.393 284.702L164.416 286.135C163.553 286.155 162.922 286.17 162.423 286.141C161.928 286.112 161.586 286.04 161.3 285.9C160.77 285.641 160.337 285.219 160.066 284.695C159.919 284.412 159.839 284.073 159.798 283.578C159.757 283.08 159.757 282.449 159.757 281.586V210.07Z" stroke="white" stroke-opacity="0.6" stroke-width="0.5"/>
<path d="M173.263 220.575V271.869M190.531 274.916V220.575M207.798 274.916V220.575M223.034 220.575V274.916" stroke="#323947" stroke-opacity="0.1" stroke-width="1.5" stroke-linecap="round"/>
<path d="M173.263 237.1V260.462M191.039 252.844V268.08M207.798 241.671V266.048M172.248 218.817L196.625 218.309" stroke="#008099" stroke-width="2" stroke-linecap="round"/>
<path d="M74.1346 229.456C74.1346 227.854 74.1346 227.052 74.4407 226.428C74.7101 225.878 75.1413 225.424 75.6763 225.126C76.2841 224.788 77.0845 224.746 78.6852 224.663L124.304 222.289C126.062 222.197 126.941 222.151 127.617 222.465C128.211 222.741 128.698 223.204 129.005 223.782C129.353 224.441 129.353 225.321 129.353 227.082V251.915C129.353 253.527 129.353 254.333 129.045 254.959C128.773 255.511 128.339 255.966 127.8 256.262C127.188 256.599 126.383 256.636 124.773 256.71L79.154 258.796C77.405 258.876 76.5305 258.916 75.8589 258.601C75.2685 258.323 74.7846 257.861 74.4806 257.284C74.1346 256.627 74.1346 255.752 74.1346 254.001V229.456Z" fill="#323947" fill-opacity="0.8"/>
<circle cx="1.66137" cy="1.66137" r="1.66137" transform="matrix(0.999229 -0.0392598 0 1 83.1433 230.554)" fill="white" fill-opacity="0.6"/>
<circle cx="1.66137" cy="1.66137" r="1.66137" transform="matrix(0.999229 -0.0392598 0 1 83.1433 238.86)" fill="white" fill-opacity="0.6"/>
<circle cx="1.66137" cy="1.66137" r="1.66137" transform="matrix(0.999229 -0.0392598 0 1 83.1433 248.916)" fill="white" fill-opacity="0.6"/>
<path d="M92.0183 231.916L116.5 230.5M92.0183 240.412L109 239.5M92.0183 249.924L120.5 248.5" stroke="white" stroke-opacity="0.6" stroke-width="1.5" stroke-linecap="round"/>
<path d="M227.833 102.276C227.833 100.211 227.834 99.1785 228.222 98.3627C228.564 97.6443 229.113 97.0443 229.798 96.6394C230.576 96.1797 231.605 96.0875 233.661 95.9031L277.51 91.972C279.929 91.7552 281.138 91.6467 282.072 92.0511C282.892 92.4063 283.569 93.026 283.996 93.8112C284.482 94.7051 284.482 95.9194 284.481 98.3479L284.476 122.345C284.476 124.443 284.475 125.492 284.078 126.316C283.727 127.041 283.167 127.644 282.468 128.045C281.675 128.501 280.629 128.576 278.536 128.727L234.687 131.884C232.303 132.055 231.111 132.141 230.192 131.73C229.385 131.369 228.721 130.75 228.303 129.971C227.827 129.085 227.827 127.889 227.827 125.499L227.833 102.276Z" fill="#323947" fill-opacity="0.8"/>
<path d="M236.16 104.385L252.5 103M236.16 109.971L252.5 108.587M236.16 116.066L252.5 114.681M236 122L244.5 121.4" stroke="white" stroke-opacity="0.4" stroke-width="1.5" stroke-linecap="round"/>
<path d="M276.994 109.971C276.994 114.666 273.19 118.372 268.497 118.249C263.804 118.126 260 114.221 260 109.526C260 104.832 263.804 101.126 268.497 101.249C273.19 101.372 276.994 105.277 276.994 109.971Z" stroke="white" stroke-opacity="0.4" stroke-width="2"/>
<path fill-rule="evenodd" clip-rule="evenodd" d="M271.41 101.778C271.657 101.29 272.258 101.106 272.751 101.367C273.921 101.984 274.958 102.833 275.795 103.861C276.633 104.889 277.253 106.074 277.618 107.341C277.982 108.608 278.083 109.93 277.914 111.224C277.745 112.518 277.309 113.756 276.634 114.86C276.349 115.326 275.735 115.462 275.262 115.165C274.789 114.868 274.636 114.25 274.921 113.784C275.454 112.912 275.798 111.935 275.931 110.913C276.065 109.892 275.985 108.848 275.697 107.848C275.41 106.848 274.92 105.912 274.259 105.101C273.597 104.289 272.779 103.619 271.856 103.131C271.362 102.871 271.162 102.265 271.41 101.778Z" fill="white"/>
<path d="M241.482 332.308L240.466 279.257L251.5 307L252 331C248.922 332.374 246.202 332.311 241.482 332.308Z" fill="#CC2929" fill-opacity="0.8"/>
<path d="M226.754 329.261C226.424 297.854 226.735 283.38 230.817 250.309H270.938C283.706 266.095 287.332 277.523 286.174 316.564C279.064 323.674 270.938 329.261 259.765 331.292L241.482 283.828L244.022 332.308C236.497 332.377 232.695 331.742 226.754 329.261Z" fill="url(#paint0_linear_102_1211)"/>
<path d="M266.875 250.815L268.399 264.528M277.527 323.709C272.642 299.903 270.646 288.327 268.399 264.528M268.399 264.528C258.89 263.066 257.806 259.992 258.241 250.815" stroke="white" stroke-opacity="0.3" stroke-linecap="round"/>
<path d="M244.528 147.719H262.812L267.913 191.779C270.699 191.85 272.461 191.904 272.461 191.904L279.571 185.809C291.76 195.967 298.298 205.868 306.996 224.407C308.523 230.127 308.341 234.757 305.472 239.643C305.472 239.643 286.681 266.052 283.634 267.068C281.095 267.914 278.048 266.56 271.953 263.005C270.729 262.291 269.015 262.512 267.633 262.691C266.494 262.838 265.58 262.956 265.351 262.497C265.091 261.977 266.381 261.576 267.658 261.179C268.874 260.802 270.078 260.428 269.922 259.958C269.683 259.242 267.65 259.535 265.561 259.837C263.206 260.177 260.78 260.527 260.78 259.45C260.78 258.855 262.349 258.434 263.648 258.086C264.567 257.839 265.351 257.629 265.351 257.419C265.351 256.911 264.3 256.911 263.203 256.911C262.107 256.911 260.964 256.911 260.78 256.403C260.488 255.596 261.493 254.506 265.351 253.863C268.398 253.356 270.937 254.371 270.937 254.371L280.587 257.926L291.76 229.486L270.43 201.553L251.639 204.093L223.198 245.23C220.769 246.183 215.782 245.314 213.041 244.214C200.38 235.858 194.871 231.311 187.14 223.391C183.229 223.54 181.125 223.281 177.49 222.376C177.49 222.376 165.301 212.898 165.301 211.711C165.301 210.523 168.856 211.711 168.856 211.711C168.856 211.711 168.856 208.155 169.872 208.155C170.525 208.155 172.639 210.774 174.206 212.715C175.076 213.794 175.778 214.663 175.967 214.758H183.585C183.585 214.758 182.282 209.605 183.585 209.171C185.616 208.494 187.14 214.758 187.14 214.758C191.318 218.682 196.98 221.112 203.561 223.936C207.304 225.542 211.345 227.276 215.58 229.486C215.58 229.486 227.261 192.919 233.355 191.904C235.326 191.575 240.109 191.459 245.681 191.453L248.591 175.652C239.45 176.668 229.292 177.683 231.324 166.51C232.937 157.64 236.537 154.599 240.95 150.873C242.095 149.906 243.295 148.893 244.528 147.719Z" fill="#F5CEBA"/>
<path d="M255.195 155.337C249.1 155.337 241.482 151.275 238.943 148.227C238.943 148.227 246.131 140.152 252.655 138.578C259.581 136.906 271.557 140.117 271.954 149.751C275.164 150.192 276.555 151.309 278.556 154.322C280.258 164.706 280.526 172.271 280.588 186.825C280.588 186.825 276.017 192.412 265.86 192.412C255.195 192.412 250.116 188.857 250.116 188.857L254.179 175.652C254.179 175.652 260.273 176.16 260.273 171.081C260.273 166.511 253.163 168.542 253.163 168.542C252.88 163.116 253.007 160.35 255.195 155.337Z" fill="url(#paint1_linear_102_1211)"/>
<path d="M271.953 191.904C269.921 191.255 244.019 191.142 241.989 191.397C239.958 191.651 230.816 212.219 230.816 216.79V249.213C230.816 249.769 230.816 250.047 230.926 250.262C231.024 250.451 231.179 250.604 231.369 250.699C231.586 250.807 231.869 250.804 232.435 250.797L271.322 250.323C271.732 250.318 271.936 250.315 272.111 250.245C272.265 250.183 272.401 250.083 272.507 249.955C272.627 249.81 272.689 249.621 272.814 249.243C274.551 243.977 282.11 220.835 282.11 216.79C282.11 212.219 273.984 192.554 271.953 191.904Z" fill="url(#paint2_linear_102_1211)"/>
<path fill-rule="evenodd" clip-rule="evenodd" d="M75.9817 23.0018C67.2861 23.083 58.7266 26.3484 53.3728 33.2341C48.0792 40.0425 47.3278 49.061 49.1563 57.5033C51.0121 66.0711 55.1065 74.7147 63.1127 78.2028C70.854 81.5755 79.39 77.9758 86.7878 73.8984C93.5811 70.1542 99.0595 64.6106 101.297 57.157C103.761 48.9484 104.221 39.683 99.124 32.8067C93.8629 25.7086 84.7893 22.9195 75.9817 23.0018Z" fill="url(#paint3_linear_102_1211)"/>
<path fill-rule="evenodd" clip-rule="evenodd" d="M152.009 42.2036C154.38 42.181 156.715 41.2707 158.175 39.3513C159.619 37.4534 159.824 34.9394 159.325 32.586C158.819 30.1977 157.702 27.7882 155.519 26.8159C153.407 25.8757 151.079 26.8791 149.062 28.0158C147.209 29.0595 145.715 30.6048 145.105 32.6826C144.433 34.9708 144.307 37.5536 145.697 39.4704C147.132 41.4491 149.607 42.2265 152.009 42.2036Z" fill="url(#paint4_linear_102_1211)"/>
<path fill-rule="evenodd" clip-rule="evenodd" d="M202.261 351.373C205.483 351.343 208.654 350.111 210.638 347.513C212.6 344.944 212.878 341.542 212.2 338.357C211.513 335.124 209.996 331.863 207.029 330.547C204.161 329.275 200.998 330.633 198.257 332.171C195.74 333.584 193.71 335.675 192.88 338.487C191.967 341.584 191.797 345.08 193.686 347.674C195.635 350.352 198.997 351.404 202.261 351.373Z" fill="url(#paint5_linear_102_1211)"/>
<ellipse cx="89.2404" cy="304.237" rx="6.09439" ry="7.11014" stroke="url(#paint6_linear_102_1211)" stroke-width="3"/>
<circle cx="199.329" cy="71.0305" r="7.11014" stroke="url(#paint7_linear_102_1211)" stroke-width="5"/>
<path d="M100.339 105.436L104.091 112.644M107.843 119.852L104.091 112.644M104.091 112.644L111.299 108.892M104.091 112.644L96.8831 116.396" stroke="url(#paint8_linear_102_1211)" stroke-opacity="0.3" stroke-width="5" stroke-linecap="round"/>
<ellipse cx="65.2097" cy="177.683" rx="9.64947" ry="11.1731" fill="white" fill-opacity="0.6"/>
<defs>
<linearGradient id="paint0_linear_102_1211" x1="256.517" y1="250.309" x2="256.517" y2="335.636" gradientUnits="userSpaceOnUse">
<stop stop-color="#CC2929"/>
<stop offset="1" stop-color="#CC2929" stop-opacity="0"/>
</linearGradient>
<linearGradient id="paint1_linear_102_1211" x1="259.765" y1="138.156" x2="259.765" y2="192.412" gradientUnits="userSpaceOnUse">
<stop stop-color="#CC2929"/>
<stop offset="1" stop-color="#CC2929" stop-opacity="0.5"/>
</linearGradient>
<linearGradient id="paint2_linear_102_1211" x1="259.252" y1="191.63" x2="230.334" y2="243.787" gradientUnits="userSpaceOnUse">
<stop stop-color="#334D80"/>
<stop offset="1" stop-color="#143066"/>
</linearGradient>
<linearGradient id="paint3_linear_102_1211" x1="75.6703" y1="23" x2="75.6703" y2="79.5386" gradientUnits="userSpaceOnUse">
<stop stop-color="#323947" stop-opacity="0.2"/>
<stop offset="1" stop-color="#C7344C" stop-opacity="0.2"/>
</linearGradient>
<linearGradient id="paint4_linear_102_1211" x1="152.094" y1="42.2041" x2="152.094" y2="26.4435" gradientUnits="userSpaceOnUse">
<stop stop-color="#323947" stop-opacity="0.1"/>
<stop offset="1" stop-color="#323947" stop-opacity="0.05"/>
</linearGradient>
<linearGradient id="paint5_linear_102_1211" x1="202.376" y1="351.374" x2="202.376" y2="330.043" gradientUnits="userSpaceOnUse">
<stop stop-color="#323947" stop-opacity="0.2"/>
<stop offset="1" stop-color="#C7344C" stop-opacity="0.2"/>
</linearGradient>
<linearGradient id="paint6_linear_102_1211" x1="89.2404" y1="297.127" x2="89.2404" y2="311.347" gradientUnits="userSpaceOnUse">
<stop stop-color="#323947" stop-opacity="0.2"/>
<stop offset="1" stop-color="#323947" stop-opacity="0.1"/>
</linearGradient>
<linearGradient id="paint7_linear_102_1211" x1="199.329" y1="63.9204" x2="199.329" y2="78.1407" gradientUnits="userSpaceOnUse">
<stop stop-color="#007F99" stop-opacity="0.1"/>
<stop offset="1" stop-color="#007F99" stop-opacity="0.2"/>
</linearGradient>
<linearGradient id="paint8_linear_102_1211" x1="111.299" y1="108.892" x2="96.8831" y2="116.396" gradientUnits="userSpaceOnUse">
<stop stop-color="#323947" stop-opacity="0.2"/>
<stop offset="1" stop-color="#323947" stop-opacity="0.1"/>
</linearGradient>
</defs>
</svg>
