<svg width="375" height="375" viewBox="0 0 375 375" fill="none" xmlns="http://www.w3.org/2000/svg">
<path d="M298.581 203.538C309.442 170.955 327.5 137.5 305.5 104C283.5 70.5 248.848 74.6138 201.106 86.2017C152.467 98.0072 117.5 47.7524 75.9999 72.5C38.9999 94.5642 48.8606 133.134 60.1636 181.32C71.4667 229.507 24.2199 253.115 50.6644 298.449C77.1089 343.782 131.414 304.115 180.526 302.226C229.637 300.337 250.805 354.52 298.581 315.078C341.856 279.353 287.72 236.121 298.581 203.538Z" fill="#323947" fill-opacity="0.05"/>
<path d="M314.572 247.176C344.788 197.808 297.499 150.611 241.787 144.784C186.075 138.957 129.02 53.1205 69.2598 119.81C9.5 186.5 75.5 267 141.146 282.139C194.436 305.55 261.283 322.5 314.572 247.176Z" fill="#323947" fill-opacity="0.05"/>
<path d="M241.498 99.4904C241.498 97.561 241.498 96.5962 241.849 95.8143C242.159 95.125 242.658 94.5375 243.287 94.1199C244.002 93.6461 244.954 93.4893 246.858 93.1756L297.447 84.8401C300.007 84.4183 301.287 84.2073 302.285 84.5793C303.16 84.9057 303.894 85.5282 304.358 86.3389C304.887 87.2626 304.887 88.5601 304.887 91.155L304.887 132.81C304.887 134.903 304.887 135.949 304.491 136.771C304.143 137.495 303.584 138.098 302.888 138.5C302.098 138.956 301.055 139.035 298.968 139.192L248.379 143.005C245.989 143.185 244.793 143.275 243.872 142.866C243.063 142.505 242.396 141.887 241.976 141.107C241.498 140.219 241.498 139.02 241.498 136.623V99.4904Z" fill="#323947" fill-opacity="0.8"/>
<path d="M293.745 93.6648C293.745 93.5314 293.745 93.4647 293.748 93.4051C293.797 92.5834 294.345 91.8757 295.128 91.6219C295.185 91.6035 295.249 91.5867 295.379 91.5533C295.583 91.5002 295.685 91.4737 295.767 91.4596C296.924 91.2598 298.003 92.0951 298.1 93.2652C298.107 93.3477 298.107 93.4534 298.107 93.6648L298.107 126.325C298.107 126.479 298.107 126.556 298.103 126.623C298.041 127.55 297.349 128.312 296.432 128.463C296.366 128.474 296.29 128.481 296.136 128.496C295.953 128.514 295.862 128.523 295.786 128.524C294.725 128.546 293.831 127.735 293.75 126.676C293.745 126.6 293.745 126.508 293.745 126.325V93.6648Z" fill="white" fill-opacity="0.6"/>
<path d="M285.478 97.4192C285.478 96.462 286.172 95.646 287.116 95.4925C288.304 95.2996 289.381 96.2162 289.381 97.4192V120.79C289.381 121.811 288.594 122.66 287.576 122.736C286.443 122.821 285.478 121.926 285.478 120.79L285.478 97.4192Z" fill="white" fill-opacity="0.6"/>
<ellipse cx="251.861" cy="104.637" rx="3" ry="3.41379" fill="#C4C4C4"/>
<ellipse cx="262.261" cy="103.166" rx="3" ry="3.41379" fill="#C4C4C4"/>
<ellipse cx="272.662" cy="101.698" rx="3" ry="3.41379" fill="#C4C4C4"/>
<path d="M279.812 121.952C279.812 118.788 279.812 117.206 279.171 116.066C278.608 115.064 277.718 114.287 276.65 113.865C275.433 113.384 273.865 113.598 270.731 114.025L82.4916 139.704C80.0397 140.038 78.8137 140.206 77.891 140.792C77.0779 141.309 76.4314 142.049 76.0292 142.925C75.5729 143.919 75.5729 145.156 75.5729 147.63V269.758C75.5729 272.355 75.5729 273.654 76.0627 274.677C76.494 275.578 77.1855 276.33 78.0479 276.835C79.0273 277.408 80.3213 277.515 82.9093 277.731L271.149 293.399C274.156 293.649 275.66 293.774 276.819 293.266C277.839 292.819 278.68 292.045 279.209 291.067C279.812 289.953 279.812 288.444 279.812 285.426V121.952Z" fill="white" fill-opacity="0.7"/>
<path d="M278.299 116.556C278.519 116.947 278.661 117.465 278.736 118.336C278.811 119.217 278.812 120.353 278.812 121.952V285.426C278.812 286.952 278.811 288.035 278.74 288.877C278.67 289.708 278.537 290.207 278.33 290.591C277.906 291.374 277.233 291.993 276.418 292.35C276.018 292.525 275.51 292.616 274.676 292.617C273.831 292.618 272.752 292.529 271.231 292.402L82.9922 276.734C81.6825 276.625 80.7579 276.547 80.0364 276.43C79.3269 276.314 78.8936 276.171 78.5529 275.971C77.863 275.568 77.3098 274.967 76.9647 274.245C76.7943 273.889 76.6875 273.446 76.631 272.729C76.5736 272 76.5729 271.072 76.5729 269.758V147.63C76.5729 146.378 76.5736 145.495 76.627 144.799C76.6795 144.116 76.7788 143.689 76.938 143.342C77.2597 142.642 77.7769 142.049 78.4274 141.636C78.7492 141.431 79.1586 141.275 79.8285 141.131C80.5106 140.984 81.3856 140.864 82.6267 140.695L270.866 115.016C272.451 114.8 273.576 114.647 274.459 114.603C275.332 114.56 275.865 114.63 276.282 114.795C277.137 115.133 277.849 115.754 278.299 116.556Z" stroke="white" stroke-opacity="0.7" stroke-width="2"/>
<path d="M122.231 157.476C122.231 156.472 122.231 155.97 122.418 155.569C122.582 155.216 122.846 154.918 123.177 154.713C123.552 154.48 124.05 154.419 125.047 154.299L223.952 142.324C225.192 142.174 225.812 142.099 226.292 142.294C226.713 142.466 227.064 142.777 227.285 143.175C227.537 143.628 227.537 144.252 227.537 145.5V146.124C227.537 147.132 227.537 147.636 227.35 148.038C227.185 148.392 226.919 148.69 226.587 148.895C226.209 149.128 225.709 149.186 224.708 149.303L125.802 160.834C124.567 160.978 123.949 161.05 123.471 160.854C123.051 160.681 122.702 160.371 122.482 159.973C122.231 159.521 122.231 158.899 122.231 157.656V157.476Z" fill="black" fill-opacity="0.1"/>
<path d="M86.6459 162.453C86.6459 161.457 86.6459 160.959 86.83 160.56C86.9923 160.209 87.2531 159.912 87.5807 159.706C87.9526 159.472 88.4463 159.408 89.4337 159.279L109.155 156.718C110.403 156.556 111.027 156.475 111.511 156.669C111.936 156.839 112.289 157.15 112.513 157.549C112.767 158.004 112.767 158.633 112.767 159.891V160.051C112.767 161.047 112.767 161.545 112.583 161.944C112.421 162.295 112.16 162.592 111.832 162.798C111.461 163.032 110.967 163.097 109.979 163.225L90.2577 165.784C89.0101 165.946 88.3863 166.027 87.9024 165.833C87.4774 165.663 87.1238 165.352 86.9003 164.953C86.6459 164.498 86.6459 163.869 86.6459 162.611V162.453Z" fill="black" fill-opacity="0.1"/>
<path d="M141.723 173.666C141.723 172.645 141.723 172.135 141.914 171.73C142.082 171.373 142.352 171.074 142.69 170.87C143.074 170.639 143.581 170.587 144.597 170.483L216.586 163.111C217.807 162.985 218.418 162.923 218.89 163.122C219.305 163.298 219.649 163.608 219.865 164.003C220.112 164.452 220.112 165.066 220.112 166.294V167.399C220.112 168.425 220.112 168.938 219.919 169.345C219.75 169.703 219.478 170.002 219.138 170.205C218.752 170.436 218.241 170.485 217.219 170.584L145.23 177.523C144.014 177.64 143.406 177.698 142.937 177.498C142.524 177.321 142.183 177.011 141.968 176.618C141.723 176.169 141.723 175.559 141.723 174.337V173.666Z" fill="black" fill-opacity="0.1"/>
<path d="M243.67 164.223C243.67 163.208 243.67 162.7 243.86 162.296C244.027 161.941 244.295 161.642 244.63 161.438C245.012 161.206 245.516 161.151 246.526 161.042L260.847 159.493C262.074 159.36 262.688 159.293 263.162 159.492C263.579 159.666 263.925 159.976 264.143 160.372C264.391 160.823 264.391 161.44 264.391 162.674V163.726C264.391 164.763 264.391 165.281 264.196 165.69C264.024 166.05 263.748 166.351 263.404 166.553C263.013 166.782 262.497 166.827 261.464 166.915L247.142 168.138C245.937 168.241 245.335 168.292 244.87 168.089C244.462 167.911 244.124 167.601 243.912 167.209C243.67 166.763 243.67 166.159 243.67 164.949V164.223Z" fill="black" fill-opacity="0.1"/>
<path d="M134.72 192.461C134.72 191.418 134.72 190.896 134.917 190.486C135.091 190.124 135.369 189.823 135.716 189.622C136.109 189.393 136.629 189.352 137.669 189.27L260.636 179.585C261.834 179.491 262.434 179.444 262.896 179.648C263.302 179.828 263.636 180.137 263.847 180.528C264.087 180.972 264.087 181.573 264.087 182.776V183.439C264.087 184.482 264.087 185.004 263.89 185.414C263.716 185.775 263.438 186.076 263.092 186.278C262.698 186.506 262.178 186.547 261.138 186.629L138.172 196.314C136.973 196.409 136.374 196.456 135.912 196.251C135.506 196.072 135.171 195.763 134.96 195.372C134.72 194.927 134.72 194.326 134.72 193.124V192.461Z" fill="black" fill-opacity="0.1"/>
<path d="M133.021 258.933C133.021 258.725 133.021 258.62 133.028 258.533C133.114 257.558 133.893 256.789 134.869 256.714C134.956 256.707 135.06 256.709 135.268 256.711L159.961 256.998C160.296 257.002 160.464 257.004 160.605 257.025C161.474 257.16 162.153 257.847 162.278 258.718C162.298 258.859 162.298 259.027 162.298 259.363C162.298 259.709 162.298 259.882 162.277 260.026C162.147 260.917 161.436 261.611 160.542 261.721C160.398 261.739 160.225 261.735 159.879 261.727L135.191 261.154C134.989 261.149 134.888 261.147 134.803 261.137C133.853 261.034 133.11 260.273 133.028 259.321C133.021 259.235 133.021 259.134 133.021 258.933Z" fill="black" fill-opacity="0.1"/>
<path d="M133.021 249.82C133.021 249.417 133.021 249.216 133.049 249.049C133.194 248.207 133.857 247.549 134.7 247.412C134.868 247.385 135.069 247.387 135.471 247.39L170.279 247.695C170.675 247.698 170.873 247.7 171.038 247.729C171.87 247.878 172.518 248.532 172.659 249.365C172.687 249.53 172.687 249.728 172.687 250.124C172.687 250.526 172.687 250.727 172.659 250.895C172.515 251.737 171.851 252.395 171.008 252.531C170.84 252.559 170.639 252.557 170.237 252.553L135.429 252.249C135.033 252.245 134.835 252.244 134.67 252.214C133.838 252.066 133.19 251.412 133.049 250.579C133.021 250.413 133.021 250.215 133.021 249.82Z" fill="black" fill-opacity="0.1"/>
<path d="M133.021 239.493C133.021 239.026 133.021 238.793 133.059 238.599C133.218 237.807 133.837 237.188 134.629 237.029C134.823 236.991 135.056 236.991 135.523 236.991H159.639C160.252 236.991 160.559 236.991 160.811 237.057C161.505 237.241 162.048 237.784 162.232 238.478C162.298 238.73 162.298 239.037 162.298 239.65C162.298 240.271 162.298 240.582 162.231 240.836C162.043 241.536 161.492 242.08 160.79 242.258C160.535 242.322 160.225 242.318 159.604 242.31L135.49 241.995C135.029 241.989 134.798 241.986 134.606 241.945C133.823 241.779 133.214 241.163 133.059 240.377C133.021 240.185 133.021 239.954 133.021 239.493Z" fill="black" fill-opacity="0.1"/>
<path d="M184.752 238.119C184.752 237.025 184.752 236.478 184.963 236.062C185.148 235.695 185.445 235.399 185.811 235.213C186.227 235.002 186.774 235.002 187.867 235.002L224.448 235.002C225.594 235.002 226.167 235.002 226.606 235.227C226.992 235.425 227.308 235.741 227.506 236.127C227.731 236.566 227.731 237.14 227.731 238.287V260.354C227.731 261.448 227.731 261.995 227.52 262.412C227.334 262.778 227.038 263.075 226.672 263.261C226.255 263.471 225.709 263.471 224.616 263.471L188.034 263.471C186.888 263.471 186.315 263.471 185.876 263.246C185.49 263.048 185.175 262.733 184.977 262.346C184.752 261.907 184.752 261.333 184.752 260.187V238.119Z" fill="black" fill-opacity="0.1"/>
<path d="M189.683 242.358C189.683 241.798 189.683 241.518 189.792 241.304C189.887 241.116 190.04 240.963 190.229 240.867C190.443 240.758 190.723 240.758 191.283 240.758H217.36C217.921 240.758 218.201 240.758 218.414 240.867C218.603 240.963 218.756 241.116 218.851 241.304C218.96 241.518 218.96 241.798 218.96 242.358V245.743C218.96 246.311 218.96 246.595 218.849 246.811C218.751 247 218.596 247.154 218.404 247.249C218.187 247.356 217.903 247.352 217.335 247.343L191.257 246.922C190.705 246.913 190.429 246.909 190.219 246.798C190.033 246.701 189.883 246.549 189.789 246.362C189.683 246.15 189.683 245.874 189.683 245.322V242.358Z" fill="white" fill-opacity="0.6"/>
<path d="M189.683 252.894C189.683 252.334 189.683 252.054 189.792 251.84C189.887 251.652 190.04 251.499 190.229 251.403C190.443 251.294 190.723 251.294 191.283 251.294H195.454C196.014 251.294 196.294 251.294 196.508 251.403C196.696 251.499 196.849 251.652 196.945 251.84C197.054 252.054 197.054 252.334 197.054 252.894V256.2C197.054 256.793 197.054 257.09 196.936 257.31C196.832 257.504 196.667 257.659 196.467 257.75C196.239 257.853 195.943 257.834 195.351 257.796L191.18 257.529C190.653 257.495 190.389 257.479 190.189 257.365C190.013 257.265 189.871 257.114 189.783 256.932C189.683 256.725 189.683 256.461 189.683 255.933V252.894Z" fill="white" fill-opacity="0.6"/>
<path d="M199.966 252.894C199.966 252.334 199.966 252.054 200.075 251.84C200.171 251.652 200.324 251.499 200.512 251.403C200.726 251.294 201.006 251.294 201.566 251.294H205.737C206.297 251.294 206.577 251.294 206.791 251.403C206.979 251.499 207.132 251.652 207.228 251.84C207.337 252.054 207.337 252.334 207.337 252.894V256.2C207.337 256.793 207.337 257.09 207.219 257.31C207.116 257.504 206.951 257.659 206.751 257.75C206.523 257.853 206.227 257.834 205.635 257.796L201.464 257.529C200.936 257.495 200.673 257.479 200.473 257.365C200.297 257.265 200.155 257.114 200.067 256.932C199.966 256.725 199.966 256.461 199.966 255.933V252.894Z" fill="white" fill-opacity="0.6"/>
<path d="M210.25 252.894C210.25 252.334 210.25 252.054 210.359 251.84C210.454 251.652 210.607 251.499 210.796 251.403C211.009 251.294 211.289 251.294 211.85 251.294H216.02C216.581 251.294 216.861 251.294 217.074 251.403C217.263 251.499 217.416 251.652 217.511 251.84C217.62 252.054 217.62 252.334 217.62 252.894V256.2C217.62 256.793 217.62 257.09 217.503 257.31C217.399 257.504 217.234 257.659 217.034 257.75C216.806 257.853 216.51 257.834 215.918 257.796L211.747 257.529C211.22 257.495 210.956 257.479 210.756 257.365C210.58 257.265 210.438 257.114 210.35 256.932C210.25 256.725 210.25 256.461 210.25 255.933V252.894Z" fill="white" fill-opacity="0.6"/>
<path d="M130.582 227.428L146.053 211.011L158.331 220.456L177.22 202.039L200.831 220.456L231.053 186.928" stroke="#E50026" stroke-width="5" stroke-linecap="round" stroke-linejoin="round"/>
<path d="M107.331 227.067V216.206L112.053 218.095L107.331 227.067Z" fill="#993D3D"/>
<path d="M64.8307 313.953C64.8307 313.953 68.6085 285.619 79.9419 277.592L117.248 288.453L122.914 313.953C122.914 313.953 102.609 320.092 87.9696 319.62C73.7397 319.16 64.8307 313.953 64.8307 313.953Z" fill="url(#paint0_linear_2_95)"/>
<path d="M109.215 218.148C109.215 218.148 117.298 224.419 122.915 222.814C132.831 219.981 132.168 200.17 129.998 191.647C119.531 193.923 111.749 191.647 101.665 191.647L98.441 223.697L107.331 227.064L109.215 218.148Z" fill="#F5CEBA"/>
<path d="M81.3594 230.845C85.9154 225.736 90.3315 221.4 97.4149 220.928C104.954 220.426 116.629 228.858 121.151 249.262C124.128 262.697 119.813 284.641 118.702 289.856C118.618 290.251 118.576 290.449 118.462 290.613C118.365 290.752 118.216 290.878 118.063 290.95C117.882 291.035 117.685 291.043 117.291 291.06C114.459 291.179 106.74 291.266 97.4149 289.401C89.7232 287.862 80.2235 280.267 78.0425 278.456C77.8789 278.32 77.7971 278.252 77.7285 278.162C77.6697 278.085 77.6178 277.991 77.5844 277.9C77.5454 277.794 77.5318 277.688 77.5047 277.476C77.0803 274.16 75.0657 257.727 75.6927 249.262C76.1838 242.631 76.4301 236.373 81.3594 230.845Z" fill="url(#paint1_linear_2_95)"/>
<path d="M81.8307 241.23C84.9057 237.642 90.3306 238.396 92.2196 239.341C102.609 244.535 120.553 265.785 120.553 265.785L158.803 267.674C158.803 267.674 169.192 262.087 172.497 262.007C175.803 261.928 176.747 267.202 186.664 267.202V281.841L180.053 282.785C180.053 282.785 179.108 285.205 177.692 285.619C176.615 285.933 174.858 285.146 174.858 285.146L160.22 276.646C160.22 276.646 122.084 282.281 118.664 280.424C102.136 271.452 80.8863 252.091 79.9418 250.202C78.9973 248.313 78.9974 244.535 81.8307 241.23Z" fill="#F5CEBA"/>
<path d="M111.581 170.396C120.49 169.336 127.164 177.794 128.581 181.73C128.581 181.73 138.97 181.257 139.914 187.869C140.785 193.964 137.735 197.313 131.886 197.313C129.405 197.313 128.581 193.535 128.581 193.535C128.581 193.535 125.275 197.785 118.192 196.841C115.706 196.509 111.581 200.619 111.581 200.619C111.581 200.619 112.998 194.48 110.636 194.008C108.275 193.535 106.072 196.841 105.914 198.73C105.756 200.619 108.36 202.509 108.275 204.869C107.803 218.091 101.664 221.869 101.664 221.869L103.553 209.119L98.3586 222.813C98.3586 222.813 91.2752 216.674 91.2752 215.73C91.2752 214.03 92.2197 211.48 92.2197 211.48C92.2197 211.48 90.3308 213.369 88.9142 212.896C87.4975 212.424 75.6919 204.869 78.053 198.258C82.303 188.341 98.3586 171.97 111.581 170.396Z" fill="url(#paint2_linear_2_95)"/>
<path d="M232.165 219.038L226.498 216.204L234.054 196.371L243.026 193.065L248.692 201.093L231.692 230.371L232.165 219.038Z" fill="#E6B59C"/>
<path d="M241.609 191.647C241.609 191.647 250.581 190.23 252.47 192.119C254.359 194.008 248.692 202.035 248.692 202.035C243.97 198.258 241.609 191.647 241.609 191.647Z" fill="#323947"/>
<path d="M222.72 242.174C219.747 259.709 197.22 267.517 185.887 267.202V282.313C198.165 287.98 215.302 285.991 227.895 283.473C224.5 270.346 221.935 254.201 222.72 242.174Z" fill="url(#paint3_linear_2_95)"/>
<path d="M256.248 200.148L252.47 192.12C252.47 192.12 242.554 211.954 232.165 229.426L232.637 218.093L228.387 216.676C228.387 216.676 220.359 229.898 222.248 254.454C224.137 279.009 237.359 323.398 237.359 323.398C237.359 323.398 251.526 329.065 270.887 326.704C290.248 324.343 301.109 317.259 301.109 317.259C301.109 317.259 303.943 254.454 287.887 222.815C280.626 208.507 256.248 200.148 256.248 200.148Z" fill="url(#paint4_linear_2_95)"/>
<path fill-rule="evenodd" clip-rule="evenodd" d="M252.693 211.497C250.063 215.706 247.516 221.514 247.748 227.994L247.777 228.81L239.027 224.178L239.469 223.343L246.788 227.218C246.776 220.806 249.318 215.115 251.893 210.996C253.236 208.847 254.593 207.117 255.616 205.922C256.128 205.325 256.556 204.861 256.857 204.546C257.008 204.388 257.127 204.267 257.209 204.185C257.25 204.144 257.282 204.113 257.303 204.092L257.328 204.068L257.335 204.061L257.337 204.059C257.337 204.059 257.338 204.058 257.664 204.4C257.991 204.741 257.991 204.741 257.991 204.741L257.99 204.742L257.985 204.747L257.963 204.768C257.944 204.786 257.915 204.815 257.876 204.854C257.799 204.93 257.686 205.046 257.54 205.198C257.249 205.502 256.833 205.953 256.333 206.536C255.334 207.703 254.006 209.396 252.693 211.497Z" fill="white" fill-opacity="0.3"/>
<path d="M239.72 173.234C240.456 174.296 241.43 174.846 242.385 175.112C243.884 175.53 244.634 175.739 244.812 175.904C245.039 176.116 245.057 176.148 245.114 176.453C245.159 176.692 244.986 177.265 244.641 178.412C243.795 181.219 243.048 185.276 244.443 188.345C245.612 190.918 243.498 199.206 240.193 198.262C238.548 197.792 237.222 198.026 236.399 198.306C236.168 198.384 236.052 198.424 235.898 198.563C235.785 198.665 235.655 198.873 235.612 199.019C235.552 199.218 235.574 199.395 235.617 199.751C236.578 207.693 232.861 213.149 226.97 219.039C223.892 222.118 218.304 224.597 217.526 221.873C216.748 219.148 212.331 213.373 209.498 211.484C207.665 210.262 207.767 208.178 208.554 207.234C211.702 202.197 214.598 191.462 200.998 188.817C187.398 186.173 188.248 168.984 194.859 166.15C205.751 161.482 214.496 159.638 223.193 155.289L223.193 155.289C224.499 154.636 225.353 154.209 226.069 153.539C226.518 153.118 226.742 152.908 226.945 152.839C227.129 152.776 227.311 152.767 227.5 152.812C227.709 152.861 227.86 152.977 228.161 153.209C233.056 156.973 235.779 167.54 239.72 173.234Z" fill="url(#paint5_linear_2_95)"/>
<path d="M208.081 188.815C205.72 189.489 200.053 188.815 200.053 188.815C201.942 190.389 204.776 196.37 203.831 200.148C202.635 204.931 204.776 208.648 206.664 208.176C208.553 207.703 213.087 205.72 214.22 207.231C215.637 209.12 219.887 214.787 223.664 211.009C227.941 206.733 226.026 198.731 226.026 198.731L228.859 198.259C229.331 193.537 228.371 186.1 226.026 185.509C223.68 184.918 223.192 186.453 222.72 188.815L217.053 182.203C217.053 182.203 211.689 187.784 208.081 188.815Z" fill="#E6B59C"/>
<path d="M164.47 276.177C163.272 275.378 160.692 278.066 160.692 278.066C160.692 278.066 160.382 280.117 161.165 280.899C161.947 281.682 163.526 280.899 163.526 280.899C163.526 280.899 163.085 282.82 163.998 283.733C164.911 284.645 166.831 284.205 166.831 284.205C166.831 284.205 166.533 286.21 167.776 287.038C169.192 287.983 170.609 287.038 170.609 287.038C170.609 287.038 170.631 289.03 171.553 289.399C172.6 289.818 177.22 284.205 175.804 283.26C174.87 282.638 172.498 283.733 172.498 283.733C172.498 283.733 173.509 281.09 172.97 280.899C171.568 280.404 169.665 281.844 169.665 281.844C169.665 281.844 170.609 279.483 169.665 278.538C168.609 277.482 166.831 279.483 165.887 279.01C164.831 278.482 165.887 277.122 164.47 276.177Z" fill="#E6B59C"/>
<path d="M180.998 266.258C183.459 267.122 186.665 267.203 186.665 267.203V272.87C186.665 272.87 174.859 267.203 172.971 267.675C171.082 268.147 172.498 271.453 170.137 271.925C167.776 272.397 167.297 264.683 168.248 263.425C169.551 261.704 171.575 261.542 173.443 262.008C175.331 262.481 177.861 265.157 180.998 266.258Z" fill="#E6B59C"/>
<path d="M299.988 173.322C300.509 172.912 301.232 172.901 301.776 173.296L302.642 173.927C303.442 174.502 305.101 175.458 307.051 176.254C308.163 176.705 309.344 177.004 310.518 177.177C311.232 177.283 311.825 177.326 312.116 177.328L313.336 177.334C314.164 177.336 314.839 178.026 314.86 178.873L315.188 191.85C315.272 195.21 313.534 198.97 310.435 202.182C307.61 205.114 304.287 206.963 301.723 206.997C299.157 207.031 295.746 205.27 292.778 202.413C289.522 199.284 287.6 195.572 287.516 192.212L287.195 179.236C287.173 178.388 287.813 177.682 288.64 177.658L289.864 177.62L290.117 177.605C290.474 177.577 290.964 177.518 291.534 177.415C292.674 177.209 293.81 176.884 294.87 176.415C295.183 176.277 295.491 176.132 295.795 175.983C296.73 175.522 297.583 175.03 298.336 174.54C298.599 174.368 298.832 174.208 299.031 174.065C299.103 174.014 299.161 173.971 299.206 173.938L299.988 173.322ZM301.315 173.933C301.06 173.748 300.727 173.753 300.482 173.945L299.768 174.509C299.734 174.535 299.69 174.569 299.632 174.612L299.335 174.824C299.166 174.943 298.978 175.07 298.773 175.203C297.995 175.71 297.116 176.217 296.151 176.693C295.838 176.847 295.519 176.996 295.197 177.138C294.075 177.635 292.88 177.977 291.683 178.193C291.083 178.301 290.565 178.364 290.179 178.394L289.914 178.41L288.672 178.449C288.284 178.46 287.974 178.802 287.985 179.225L288.307 192.202C288.384 195.331 290.208 198.853 293.323 201.847C296.153 204.571 299.381 206.237 301.703 206.206C304.024 206.176 307.169 204.426 309.863 201.63C312.826 198.558 314.475 194.991 314.398 191.861L314.069 178.884C314.059 178.46 313.731 178.126 313.342 178.124L312.12 178.118C311.853 178.116 311.382 178.086 310.808 178.014L310.411 177.959C309.179 177.777 307.937 177.463 306.76 176.986C305.536 176.486 304.407 175.918 303.397 175.328C302.879 175.025 302.436 174.739 302.194 174.571L301.315 173.933ZM300.351 175.193C300.689 174.92 301.155 174.913 301.508 175.175L302.168 175.668L302.177 175.674C302.223 175.71 303.814 176.881 306.239 177.896C308.543 178.855 310.776 178.895 310.839 178.896L311.916 178.902C312.453 178.903 312.896 179.367 312.91 179.942L313.207 191.683C313.28 194.62 311.786 197.934 309.115 200.775C306.68 203.368 303.827 204.993 301.674 205.021C299.519 205.049 296.589 203.5 294.028 200.972C291.215 198.201 289.561 194.928 289.488 191.993L289.197 180.252C289.182 179.678 289.601 179.203 290.138 179.188L291.219 179.154C291.284 179.152 293.515 179.053 295.764 178.034C298.153 176.952 299.705 175.715 299.721 175.703L300.351 175.193Z" fill="white" fill-opacity="0.6"/>
<path d="M307.046 184.646C307.451 184.181 308.157 184.141 308.622 184.556C309.057 184.946 309.127 185.598 308.8 186.061L308.73 186.151L300.768 195.292C300.349 195.773 299.619 195.792 299.164 195.355L299.087 195.274L295.254 190.805C294.848 190.331 294.894 189.619 295.358 189.213C295.793 188.833 296.44 188.858 296.854 189.253L296.933 189.337L299.924 192.823L307.046 184.646Z" fill="#008099" fill-opacity="0.2"/>
<path fill-rule="evenodd" clip-rule="evenodd" d="M94.356 85.6052C89.0587 85.5967 83.4389 86.6817 80.182 90.9923C76.9576 95.2599 77.4553 101.085 78.6861 106.345C79.8926 111.501 82.1636 116.556 86.7327 118.987C91.4379 121.491 97.014 120.936 101.825 118.656C106.76 116.318 110.977 112.315 112.286 106.877C113.624 101.322 112.115 95.3562 108.475 91.0375C105.007 86.9233 99.6405 85.6137 94.356 85.6052Z" fill="white" fill-opacity="0.6"/>
<path d="M96.7617 107.225C96.7401 106.606 96.5705 106.126 96.2528 105.784C95.9352 105.443 95.3872 105.129 94.6089 104.842C93.8307 104.556 93.111 104.263 92.4499 103.965C91.7888 103.667 91.216 103.314 90.7315 102.908C90.2469 102.502 89.8697 102.025 89.5997 101.478C89.3297 100.931 89.1809 100.262 89.1533 99.4707C89.1071 98.1475 89.5154 97.0436 90.3782 96.1589C91.0029 95.5125 91.7904 95.0496 92.7405 94.7702C93.3829 94.5813 93.8782 94.0197 93.8549 93.3504L93.8422 92.9865C93.8241 92.4708 94.2276 92.0382 94.7433 92.0202C95.2589 92.0022 95.6915 92.4056 95.7096 92.9213L95.7243 93.3428C95.7477 94.0148 96.2673 94.5491 96.9115 94.742C97.8264 95.0159 98.5885 95.4914 99.1978 96.1684C99.6437 96.6554 99.9805 97.2174 100.208 97.8546C100.577 98.8875 99.662 99.8328 98.5658 99.8711C97.4792 99.909 96.7167 98.9396 96.0542 98.0773C95.7257 97.6498 95.2718 97.4462 94.6924 97.4664C94.1756 97.4845 93.7781 97.663 93.4999 98.0019C93.2292 98.3328 93.1039 98.784 93.1239 99.3556C93.1441 99.935 93.3246 100.391 93.6655 100.724C94.0061 101.049 94.546 101.356 95.2851 101.644C96.0239 101.924 96.7202 102.221 97.374 102.535C98.0354 102.841 98.6083 103.197 99.0929 103.604C99.5775 104.01 99.9627 104.491 100.249 105.045C100.534 105.6 100.691 106.272 100.719 107.063C100.766 108.402 100.377 109.509 99.5531 110.384C98.955 111.026 98.184 111.484 97.2404 111.758C96.6281 111.936 96.1571 112.472 96.1793 113.109L96.1899 113.412C96.2079 113.928 95.8045 114.361 95.2888 114.379C94.7732 114.397 94.3405 113.993 94.3225 113.477L94.3115 113.163C94.2892 112.524 93.7847 112.018 93.1581 111.891C91.9706 111.651 91.0102 111.163 90.2767 110.426C89.748 109.886 89.3586 109.243 89.1085 108.496C88.7612 107.459 89.6634 106.52 90.7563 106.482C91.8493 106.444 92.6253 107.408 93.2739 108.288C93.3119 108.34 93.3519 108.389 93.3939 108.436C93.8094 108.884 94.3812 109.095 95.1093 109.07C95.6418 109.051 96.0552 108.88 96.3496 108.556C96.6438 108.224 96.7811 107.781 96.7617 107.225Z" fill="#008099" fill-opacity="0.2"/>
<path fill-rule="evenodd" clip-rule="evenodd" d="M200.839 98C202.519 97.9973 204.301 98.3414 205.334 99.7085C206.357 101.062 206.199 102.909 205.809 104.577C205.426 106.213 204.706 107.816 203.257 108.587C201.765 109.381 199.996 109.205 198.47 108.482C196.905 107.74 195.568 106.471 195.153 104.746C194.728 102.985 195.207 101.092 196.361 99.7228C197.461 98.418 199.163 98.0027 200.839 98Z" fill="url(#paint6_linear_2_95)"/>
<path fill-rule="evenodd" clip-rule="evenodd" d="M230.958 55C233.248 54.9964 235.677 55.4653 237.085 57.3286C238.479 59.1733 238.264 61.6911 237.732 63.9648C237.21 66.1935 236.229 68.3787 234.254 69.4296C232.22 70.5117 229.81 70.2721 227.73 69.2866C225.597 68.2757 223.774 66.5454 223.208 64.1949C222.63 61.7939 223.282 59.215 224.855 57.3482C226.355 55.5698 228.674 55.0037 230.958 55Z" stroke="url(#paint7_linear_2_95)" stroke-width="4"/>
<defs>
<linearGradient id="paint0_linear_2_95" x1="93.8724" y1="277.592" x2="93.8724" y2="321.349" gradientUnits="userSpaceOnUse">
<stop stop-color="#CC2929"/>
<stop offset="1" stop-color="#CC2929" stop-opacity="0"/>
</linearGradient>
<linearGradient id="paint1_linear_2_95" x1="115.8" y1="232.766" x2="76.3012" y2="271.778" gradientUnits="userSpaceOnUse">
<stop stop-color="#334D80"/>
<stop offset="1" stop-color="#143066"/>
</linearGradient>
<linearGradient id="paint2_linear_2_95" x1="108.901" y1="170.305" x2="108.901" y2="222.813" gradientUnits="userSpaceOnUse">
<stop stop-color="#CC2929"/>
<stop offset="1" stop-color="#CC2929" stop-opacity="0.5"/>
</linearGradient>
<linearGradient id="paint3_linear_2_95" x1="188.028" y1="275.061" x2="244.15" y2="276.117" gradientUnits="userSpaceOnUse">
<stop stop-color="#CC2929" stop-opacity="0.9"/>
<stop offset="1" stop-color="#CC2929" stop-opacity="0.2"/>
</linearGradient>
<linearGradient id="paint4_linear_2_95" x1="247.038" y1="209.394" x2="268.705" y2="323.695" gradientUnits="userSpaceOnUse">
<stop stop-color="#CC2929"/>
<stop offset="1" stop-color="#CC2929" stop-opacity="0"/>
</linearGradient>
<linearGradient id="paint5_linear_2_95" x1="227.675" y1="154.415" x2="201.257" y2="213.722" gradientUnits="userSpaceOnUse">
<stop stop-color="#334D80"/>
<stop offset="1" stop-color="#143066"/>
</linearGradient>
<linearGradient id="paint6_linear_2_95" x1="200.554" y1="98" x2="200.554" y2="109.108" gradientUnits="userSpaceOnUse">
<stop stop-color="#323947" stop-opacity="0.2"/>
<stop offset="1" stop-color="#C7344C" stop-opacity="0.2"/>
</linearGradient>
<linearGradient id="paint7_linear_2_95" x1="230.57" y1="55" x2="230.57" y2="70.14" gradientUnits="userSpaceOnUse">
<stop stop-color="#007F99" stop-opacity="0.1"/>
<stop offset="1" stop-color="#007F99" stop-opacity="0.2"/>
</linearGradient>
</defs>
</svg>
